<svg width="37" height="37" viewBox="0 0 37 37" fill="none" xmlns="http://www.w3.org/2000/svg">
<path d="M15.4209 18.5473C15.4209 16.843 16.8017 15.461 18.5056 15.461C20.2094 15.461 21.591 16.843 21.591 18.5473C21.591 20.2516 20.2094 21.6336 18.5056 21.6336C16.8017 21.6336 15.4209 20.2516 15.4209 18.5473ZM13.7529 18.5473C13.7529 21.1729 15.8807 23.3013 18.5056 23.3013C21.1304 23.3013 23.2582 21.1729 23.2582 18.5473C23.2582 15.9217 21.1304 13.7933 18.5056 13.7933C15.8807 13.7933 13.7529 15.9217 13.7529 18.5473ZM22.3356 13.6048C22.3356 13.8245 22.4006 14.0394 22.5226 14.2221C22.6445 14.4049 22.818 14.5473 23.0209 14.6315C23.2238 14.7157 23.4471 14.7378 23.6626 14.695C23.878 14.6522 24.076 14.5465 24.2314 14.3911C24.3867 14.2358 24.4926 14.0379 24.5355 13.8224C24.5785 13.6069 24.5566 13.3835 24.4726 13.1805C24.3886 12.9775 24.2463 12.8039 24.0637 12.6817C23.8811 12.5596 23.6664 12.4943 23.4468 12.4943H23.4463C23.1519 12.4944 22.8695 12.6114 22.6613 12.8197C22.453 13.0279 22.3359 13.3103 22.3356 13.6048ZM14.7663 26.0833C13.8639 26.0421 13.3735 25.8918 13.0475 25.7648C12.6154 25.5965 12.3071 25.3961 11.9829 25.0723C11.6587 24.7484 11.4581 24.4403 11.2906 24.0081C11.1635 23.6822 11.0132 23.1914 10.9722 22.2888C10.9273 21.3129 10.9184 21.0197 10.9184 18.5474C10.9184 16.075 10.9281 15.7826 10.9722 14.8059C11.0133 13.9033 11.1647 13.4135 11.2906 13.0866C11.4588 12.6544 11.6592 12.346 11.9829 12.0217C12.3066 11.6975 12.6147 11.4967 13.0475 11.3292C13.3733 11.2021 13.8639 11.0518 14.7663 11.0107C15.7419 10.9658 16.035 10.9569 18.5056 10.9569C20.9761 10.9569 21.2695 10.9666 22.2459 11.0107C23.1483 11.0518 23.6379 11.2033 23.9647 11.3292C24.3968 11.4967 24.7051 11.6979 25.0293 12.0217C25.3535 12.3455 25.5534 12.6544 25.7216 13.0866C25.8487 13.4125 25.999 13.9033 26.04 14.8059C26.0849 15.7826 26.0938 16.075 26.0938 18.5474C26.0938 21.0197 26.0849 21.3121 26.04 22.2888C25.9989 23.1914 25.8479 23.682 25.7216 24.0081C25.5534 24.4403 25.353 24.7487 25.0293 25.0723C24.7056 25.3958 24.3968 25.5965 23.9647 25.7648C23.6389 25.8919 23.1483 26.0422 22.2459 26.0833C21.2703 26.1281 20.9772 26.1371 18.5056 26.1371C16.0339 26.1371 15.7416 26.1281 14.7663 26.0833ZM14.6897 9.34513C13.7044 9.39001 13.0311 9.54629 12.4431 9.77516C11.8341 10.0115 11.3187 10.3286 10.8035 10.843C10.2884 11.3575 9.97223 11.874 9.73595 12.4831C9.50716 13.0716 9.35092 13.7447 9.30605 14.7303C9.26044 15.7175 9.25 16.033 9.25 18.5473C9.25 21.0615 9.26044 21.3771 9.30605 22.3643C9.35092 23.3499 9.50716 24.023 9.73595 24.6115C9.97223 25.2202 10.2885 25.7373 10.8035 26.2515C11.3186 26.7658 11.8341 27.0824 12.4431 27.3194C13.0322 27.5483 13.7044 27.7046 14.6897 27.7494C15.6771 27.7943 15.992 27.8055 18.5056 27.8055C21.0191 27.8055 21.3346 27.7951 22.3214 27.7494C23.3068 27.7046 23.9797 27.5483 24.568 27.3194C25.1766 27.0824 25.6924 26.766 26.2076 26.2515C26.7227 25.7371 27.0382 25.2202 27.2751 24.6115C27.5039 24.023 27.6609 23.3499 27.705 22.3643C27.7499 21.3764 27.7604 21.0615 27.7604 18.5473C27.7604 16.033 27.7499 15.7175 27.705 14.7303C27.6602 13.7446 27.5039 13.0712 27.2751 12.4831C27.0382 11.8743 26.7219 11.3583 26.2076 10.843C25.6933 10.3278 25.1766 10.0115 24.5688 9.77516C23.9797 9.54629 23.3067 9.38927 22.3222 9.34513C21.3353 9.30025 21.0198 9.28906 18.5063 9.28906C15.9928 9.28906 15.6771 9.29951 14.6897 9.34513Z" fill="#003B8E"/>
<path d="M15.4209 18.5473C15.4209 16.843 16.8017 15.461 18.5056 15.461C20.2094 15.461 21.591 16.843 21.591 18.5473C21.591 20.2516 20.2094 21.6336 18.5056 21.6336C16.8017 21.6336 15.4209 20.2516 15.4209 18.5473ZM13.7529 18.5473C13.7529 21.1729 15.8807 23.3013 18.5056 23.3013C21.1304 23.3013 23.2582 21.1729 23.2582 18.5473C23.2582 15.9217 21.1304 13.7933 18.5056 13.7933C15.8807 13.7933 13.7529 15.9217 13.7529 18.5473ZM22.3356 13.6048C22.3356 13.8245 22.4006 14.0394 22.5226 14.2221C22.6445 14.4049 22.818 14.5473 23.0209 14.6315C23.2238 14.7157 23.4471 14.7378 23.6626 14.695C23.878 14.6522 24.076 14.5465 24.2314 14.3911C24.3867 14.2358 24.4926 14.0379 24.5355 13.8224C24.5785 13.6069 24.5566 13.3835 24.4726 13.1805C24.3886 12.9775 24.2463 12.8039 24.0637 12.6817C23.8811 12.5596 23.6664 12.4943 23.4468 12.4943H23.4463C23.1519 12.4944 22.8695 12.6114 22.6613 12.8197C22.453 13.0279 22.3359 13.3103 22.3356 13.6048ZM14.7663 26.0833C13.8639 26.0421 13.3735 25.8918 13.0475 25.7648C12.6154 25.5965 12.3071 25.3961 11.9829 25.0723C11.6587 24.7484 11.4581 24.4403 11.2906 24.0081C11.1635 23.6822 11.0132 23.1914 10.9722 22.2888C10.9273 21.3129 10.9184 21.0197 10.9184 18.5474C10.9184 16.075 10.9281 15.7826 10.9722 14.8059C11.0133 13.9033 11.1647 13.4135 11.2906 13.0866C11.4588 12.6544 11.6592 12.346 11.9829 12.0217C12.3066 11.6975 12.6147 11.4967 13.0475 11.3292C13.3733 11.2021 13.8639 11.0518 14.7663 11.0107C15.7419 10.9658 16.035 10.9569 18.5056 10.9569C20.9761 10.9569 21.2695 10.9666 22.2459 11.0107C23.1483 11.0518 23.6379 11.2033 23.9647 11.3292C24.3968 11.4967 24.7051 11.6979 25.0293 12.0217C25.3535 12.3455 25.5534 12.6544 25.7216 13.0866C25.8487 13.4125 25.999 13.9033 26.04 14.8059C26.0849 15.7826 26.0938 16.075 26.0938 18.5474C26.0938 21.0197 26.0849 21.3121 26.04 22.2888C25.9989 23.1914 25.8479 23.682 25.7216 24.0081C25.5534 24.4403 25.353 24.7487 25.0293 25.0723C24.7056 25.3958 24.3968 25.5965 23.9647 25.7648C23.6389 25.8919 23.1483 26.0422 22.2459 26.0833C21.2703 26.1281 20.9772 26.1371 18.5056 26.1371C16.0339 26.1371 15.7416 26.1281 14.7663 26.0833ZM14.6897 9.34513C13.7044 9.39001 13.0311 9.54629 12.4431 9.77516C11.8341 10.0115 11.3187 10.3286 10.8035 10.843C10.2884 11.3575 9.97223 11.874 9.73595 12.4831C9.50716 13.0716 9.35092 13.7447 9.30605 14.7303C9.26044 15.7175 9.25 16.033 9.25 18.5473C9.25 21.0615 9.26044 21.3771 9.30605 22.3643C9.35092 23.3499 9.50716 24.023 9.73595 24.6115C9.97223 25.2202 10.2885 25.7373 10.8035 26.2515C11.3186 26.7658 11.8341 27.0824 12.4431 27.3194C13.0322 27.5483 13.7044 27.7046 14.6897 27.7494C15.6771 27.7943 15.992 27.8055 18.5056 27.8055C21.0191 27.8055 21.3346 27.7951 22.3214 27.7494C23.3068 27.7046 23.9797 27.5483 24.568 27.3194C25.1766 27.0824 25.6924 26.766 26.2076 26.2515C26.7227 25.7371 27.0382 25.2202 27.2751 24.6115C27.5039 24.023 27.6609 23.3499 27.705 22.3643C27.7499 21.3764 27.7604 21.0615 27.7604 18.5473C27.7604 16.033 27.7499 15.7175 27.705 14.7303C27.6602 13.7446 27.5039 13.0712 27.2751 12.4831C27.0382 11.8743 26.7219 11.3583 26.2076 10.843C25.6933 10.3278 25.1766 10.0115 24.5688 9.77516C23.9797 9.54629 23.3067 9.38927 22.3222 9.34513C21.3353 9.30025 21.0198 9.28906 18.5063 9.28906C15.9928 9.28906 15.6771 9.29951 14.6897 9.34513Z" fill="#003B8E"/>
</svg>
