<svg width="37" height="37" viewBox="0 0 37 37" fill="none" xmlns="http://www.w3.org/2000/svg">
<path d="M9.25 27.0653L10.5773 22.1299C9.50687 20.2074 9.16678 17.9639 9.61945 15.8112C10.0721 13.6585 11.2872 11.741 13.0417 10.4105C14.7963 9.08 16.9725 8.42581 19.1712 8.56794C21.3699 8.71008 23.4435 9.63901 25.0115 11.1843C26.5795 12.7296 27.5367 14.7875 27.7075 16.9805C27.8783 19.1735 27.2512 21.3545 25.9414 23.1232C24.6315 24.8918 22.7267 26.1296 20.5764 26.6094C18.4262 27.0891 16.1748 26.7786 14.2353 25.7349L9.25 27.0653ZM14.4757 23.8881L14.784 24.0707C16.1888 24.9019 17.8296 25.2459 19.4506 25.049C21.0717 24.8522 22.582 24.1255 23.7461 22.9822C24.9103 21.8389 25.6629 20.3433 25.8868 18.7283C26.1106 17.1134 25.7931 15.4699 24.9836 14.054C24.1742 12.6381 22.9183 11.5293 21.4117 10.9003C19.9051 10.2713 18.2324 10.1576 16.6543 10.5768C15.0762 10.996 13.6814 11.9246 12.6871 13.2179C11.6928 14.5111 11.155 16.0964 11.1574 17.7267C11.1561 19.0785 11.5305 20.4041 12.2391 21.5561L12.4325 21.8743L11.6904 24.6289L14.4757 23.8881Z" fill="#003B8E"/>
<path fill-rule="evenodd" clip-rule="evenodd" d="M21.9589 18.9937C21.7781 18.8481 21.5665 18.7457 21.3401 18.6941C21.1137 18.6426 20.8785 18.6433 20.6524 18.6963C20.3128 18.8371 20.0933 19.3693 19.8738 19.6354C19.8275 19.6991 19.7595 19.7439 19.6825 19.7612C19.6056 19.7784 19.5249 19.7671 19.4557 19.7293C18.2122 19.243 17.1698 18.3513 16.498 17.199C16.4407 17.1271 16.4136 17.0358 16.4223 16.9443C16.4311 16.8528 16.4751 16.7683 16.545 16.7086C16.7898 16.4666 16.9695 16.167 17.0676 15.8373C17.0894 15.4737 17.0059 15.1115 16.8272 14.7939C16.689 14.3487 16.4261 13.9522 16.0695 13.6514C15.8855 13.5688 15.6816 13.5411 15.4822 13.5716C15.2829 13.6022 15.0966 13.6897 14.9459 13.8235C14.6844 14.0488 14.4768 14.3298 14.3384 14.6459C14.2 14.9619 14.1344 15.3048 14.1464 15.6495C14.1472 15.8431 14.1718 16.0358 14.2196 16.2234C14.3409 16.6741 14.5275 17.1047 14.7735 17.5016C14.951 17.8056 15.1446 18.0999 15.3536 18.3833C16.0327 19.314 16.8863 20.1042 17.8671 20.7101C18.3593 21.018 18.8853 21.2683 19.4348 21.4561C20.0057 21.7144 20.6359 21.8136 21.2586 21.743C21.6134 21.6894 21.9496 21.5496 22.2375 21.3358C22.5255 21.122 22.7564 20.8408 22.9099 20.517C23.0002 20.3214 23.0275 20.1027 22.9883 19.891C22.8943 19.458 22.3142 19.2023 21.9589 18.9937Z" fill="#003B8E"/>
</svg>
