<svg width="20" height="19" viewBox="0 0 20 19" fill="none" xmlns="http://www.w3.org/2000/svg">
<rect x="11.5" y="0.5" width="8" height="8" rx="1.5" stroke="white"/>
<rect x="0.5" y="10.5" width="8" height="8" rx="1.5" stroke="white"/>
<path fill-rule="evenodd" clip-rule="evenodd" d="M7 1H2C1.44772 1 1 1.44772 1 2V3H0V2C0 0.89543 0.895431 0 2 0H7C8.10457 0 9 0.895431 9 2V7C9 8.10457 8.10457 9 7 9H2C0.89543 9 0 8.10457 0 7V6H1V7C1 7.55228 1.44772 8 2 8H7C7.55228 8 8 7.55228 8 7V2C8 1.44772 7.55228 1 7 1ZM1 5V4H0V5H1Z" fill="white"/>
<path fill-rule="evenodd" clip-rule="evenodd" d="M17.0521 17.6379C17.61 17.3614 18.0836 16.9405 18.4241 16.4241L19.1427 17.1427C18.7812 17.6401 18.3203 18.0606 17.7892 18.375L17.0521 17.6379ZM15.9689 17.9689C15.8155 17.9894 15.659 18 15.5 18C13.567 18 12 16.433 12 14.5C12 12.567 13.567 11 15.5 11C17.433 11 19 12.567 19 14.5C19 14.8308 18.9541 15.1508 18.8684 15.4542L19.6521 16.2379C19.8762 15.7032 20 15.1161 20 14.5C20 12.0147 17.9853 10 15.5 10C13.0147 10 11 12.0147 11 14.5C11 16.9853 13.0147 19 15.5 19C15.9546 19 16.3935 18.9326 16.8072 18.8072L15.9689 17.9689Z" fill="white"/>
</svg>
