<svg width="19" height="19" viewBox="0 0 19 19" fill="none" xmlns="http://www.w3.org/2000/svg">
<path d="M6.42086 9.54729C6.42086 7.84296 7.80171 6.46096 9.50555 6.46096C11.2094 6.46096 12.591 7.84296 12.591 9.54729C12.591 11.2516 11.2094 12.6336 9.50555 12.6336C7.80171 12.6336 6.42086 11.2516 6.42086 9.54729ZM4.75294 9.54729C4.75294 12.1729 6.88068 14.3013 9.50555 14.3013C12.1304 14.3013 14.2582 12.1729 14.2582 9.54729C14.2582 6.92165 12.1304 4.7933 9.50555 4.7933C6.88068 4.7933 4.75294 6.92165 4.75294 9.54729ZM13.3356 4.6048C13.3356 4.82453 13.4006 5.03936 13.5226 5.22211C13.6445 5.40486 13.818 5.54732 14.0209 5.63149C14.2238 5.71566 14.4471 5.73775 14.6626 5.69497C14.878 5.65219 15.076 5.54646 15.2314 5.39115C15.3867 5.23583 15.4926 5.03792 15.5355 4.82242C15.5785 4.60693 15.5566 4.38354 15.4726 4.1805C15.3886 3.97746 15.2463 3.80389 15.0637 3.68174C14.8811 3.55959 14.6664 3.49435 14.4468 3.49426H14.4463C14.1519 3.4944 13.8695 3.61143 13.6613 3.81965C13.453 4.02788 13.3359 4.31027 13.3356 4.6048ZM5.76631 17.0833C4.86393 17.0421 4.37346 16.8918 4.04752 16.7648C3.61539 16.5965 3.30707 16.3961 2.9829 16.0723C2.65874 15.7484 2.45808 15.4403 2.29059 15.0081C2.16353 14.6822 2.01322 14.1914 1.9722 13.2888C1.92733 12.3129 1.91837 12.0197 1.91837 9.54736C1.91837 7.07497 1.92807 6.78263 1.9722 5.80593C2.01329 4.90329 2.16471 4.41349 2.29059 4.08664C2.45882 3.65439 2.65918 3.34598 2.9829 3.02172C3.30663 2.69746 3.61465 2.49674 4.04752 2.3292C4.37331 2.20211 4.86393 2.05175 5.76631 2.01072C6.74192 1.96584 7.03499 1.95688 9.50555 1.95688C11.9761 1.95688 12.2695 1.96658 13.2459 2.01072C14.1483 2.05183 14.6379 2.20329 14.9647 2.3292C15.3968 2.49674 15.7051 2.6979 16.0293 3.02172C16.3535 3.34554 16.5534 3.65439 16.7216 4.08664C16.8487 4.41253 16.999 4.90329 17.04 5.80593C17.0849 6.78263 17.0938 7.07497 17.0938 9.54736C17.0938 12.0197 17.0849 12.3121 17.04 13.2888C16.9989 14.1914 16.8479 14.682 16.7216 15.0081C16.5534 15.4403 16.353 15.7487 16.0293 16.0723C15.7056 16.3958 15.3968 16.5965 14.9647 16.7648C14.6389 16.8919 14.1483 17.0422 13.2459 17.0833C12.2703 17.1281 11.9772 17.1371 9.50555 17.1371C7.03387 17.1371 6.74162 17.1281 5.76631 17.0833ZM5.68967 0.34513C4.70436 0.390014 4.03108 0.546293 3.44309 0.775156C2.83415 1.0115 2.31865 1.32858 1.80353 1.84304C1.2884 2.3575 0.972229 2.87396 0.735953 3.48308C0.507156 4.0716 0.350923 4.74471 0.306052 5.73031C0.26044 6.71745 0.25 7.03305 0.25 9.54729C0.25 12.0615 0.26044 12.3771 0.306052 13.3643C0.350923 14.3499 0.507156 15.023 0.735953 15.6115C0.972229 16.2202 1.28847 16.7373 1.80353 17.2515C2.31858 17.7658 2.83415 18.0824 3.44309 18.3194C4.03219 18.5483 4.70436 18.7046 5.68967 18.7494C6.67705 18.7943 6.99204 18.8055 9.50555 18.8055C12.0191 18.8055 12.3346 18.7951 13.3214 18.7494C14.3068 18.7046 14.9797 18.5483 15.568 18.3194C16.1766 18.0824 16.6924 17.766 17.2076 17.2515C17.7227 16.7371 18.0382 16.2202 18.2751 15.6115C18.5039 15.023 18.6609 14.3499 18.705 13.3643C18.7499 12.3764 18.7604 12.0615 18.7604 9.54729C18.7604 7.03305 18.7499 6.71745 18.705 5.73031C18.6602 4.74464 18.5039 4.07123 18.2751 3.48308C18.0382 2.87433 17.7219 2.35831 17.2076 1.84304C16.6933 1.32776 16.1766 1.0115 15.5688 0.775156C14.9797 0.546293 14.3067 0.389274 13.3222 0.34513C12.3353 0.300246 12.0198 0.289062 9.50629 0.289062C6.99278 0.289062 6.67705 0.299506 5.68967 0.34513Z" fill="#003B8E"/>
<path d="M6.42086 9.54729C6.42086 7.84296 7.80171 6.46096 9.50555 6.46096C11.2094 6.46096 12.591 7.84296 12.591 9.54729C12.591 11.2516 11.2094 12.6336 9.50555 12.6336C7.80171 12.6336 6.42086 11.2516 6.42086 9.54729ZM4.75294 9.54729C4.75294 12.1729 6.88068 14.3013 9.50555 14.3013C12.1304 14.3013 14.2582 12.1729 14.2582 9.54729C14.2582 6.92165 12.1304 4.7933 9.50555 4.7933C6.88068 4.7933 4.75294 6.92165 4.75294 9.54729ZM13.3356 4.6048C13.3356 4.82453 13.4006 5.03936 13.5226 5.22211C13.6445 5.40486 13.818 5.54732 14.0209 5.63149C14.2238 5.71566 14.4471 5.73775 14.6626 5.69497C14.878 5.65219 15.076 5.54646 15.2314 5.39115C15.3867 5.23583 15.4926 5.03792 15.5355 4.82242C15.5785 4.60693 15.5566 4.38354 15.4726 4.1805C15.3886 3.97746 15.2463 3.80389 15.0637 3.68174C14.8811 3.55959 14.6664 3.49435 14.4468 3.49426H14.4463C14.1519 3.4944 13.8695 3.61143 13.6613 3.81965C13.453 4.02788 13.3359 4.31027 13.3356 4.6048ZM5.76631 17.0833C4.86393 17.0421 4.37346 16.8918 4.04752 16.7648C3.61539 16.5965 3.30707 16.3961 2.9829 16.0723C2.65874 15.7484 2.45808 15.4403 2.29059 15.0081C2.16353 14.6822 2.01322 14.1914 1.9722 13.2888C1.92733 12.3129 1.91837 12.0197 1.91837 9.54736C1.91837 7.07497 1.92807 6.78263 1.9722 5.80593C2.01329 4.90329 2.16471 4.41349 2.29059 4.08664C2.45882 3.65439 2.65918 3.34598 2.9829 3.02172C3.30663 2.69746 3.61465 2.49674 4.04752 2.3292C4.37331 2.20211 4.86393 2.05175 5.76631 2.01072C6.74192 1.96584 7.03499 1.95688 9.50555 1.95688C11.9761 1.95688 12.2695 1.96658 13.2459 2.01072C14.1483 2.05183 14.6379 2.20329 14.9647 2.3292C15.3968 2.49674 15.7051 2.6979 16.0293 3.02172C16.3535 3.34554 16.5534 3.65439 16.7216 4.08664C16.8487 4.41253 16.999 4.90329 17.04 5.80593C17.0849 6.78263 17.0938 7.07497 17.0938 9.54736C17.0938 12.0197 17.0849 12.3121 17.04 13.2888C16.9989 14.1914 16.8479 14.682 16.7216 15.0081C16.5534 15.4403 16.353 15.7487 16.0293 16.0723C15.7056 16.3958 15.3968 16.5965 14.9647 16.7648C14.6389 16.8919 14.1483 17.0422 13.2459 17.0833C12.2703 17.1281 11.9772 17.1371 9.50555 17.1371C7.03387 17.1371 6.74162 17.1281 5.76631 17.0833ZM5.68967 0.34513C4.70436 0.390014 4.03108 0.546293 3.44309 0.775156C2.83415 1.0115 2.31865 1.32858 1.80353 1.84304C1.2884 2.3575 0.972229 2.87396 0.735953 3.48308C0.507156 4.0716 0.350923 4.74471 0.306052 5.73031C0.26044 6.71745 0.25 7.03305 0.25 9.54729C0.25 12.0615 0.26044 12.3771 0.306052 13.3643C0.350923 14.3499 0.507156 15.023 0.735953 15.6115C0.972229 16.2202 1.28847 16.7373 1.80353 17.2515C2.31858 17.7658 2.83415 18.0824 3.44309 18.3194C4.03219 18.5483 4.70436 18.7046 5.68967 18.7494C6.67705 18.7943 6.99204 18.8055 9.50555 18.8055C12.0191 18.8055 12.3346 18.7951 13.3214 18.7494C14.3068 18.7046 14.9797 18.5483 15.568 18.3194C16.1766 18.0824 16.6924 17.766 17.2076 17.2515C17.7227 16.7371 18.0382 16.2202 18.2751 15.6115C18.5039 15.023 18.6609 14.3499 18.705 13.3643C18.7499 12.3764 18.7604 12.0615 18.7604 9.54729C18.7604 7.03305 18.7499 6.71745 18.705 5.73031C18.6602 4.74464 18.5039 4.07123 18.2751 3.48308C18.0382 2.87433 17.7219 2.35831 17.2076 1.84304C16.6933 1.32776 16.1766 1.0115 15.5688 0.775156C14.9797 0.546293 14.3067 0.389274 13.3222 0.34513C12.3353 0.300246 12.0198 0.289062 9.50629 0.289062C6.99278 0.289062 6.67705 0.299506 5.68967 0.34513Z" fill="#003B8E"/>
</svg>
