<svg width="27" height="27" viewBox="0 0 27 27" fill="none" xmlns="http://www.w3.org/2000/svg">
<path d="M19.8704 3.37095C19.6279 3.38859 19.3899 3.44548 19.1656 3.5394H19.1626C18.9473 3.62477 17.9237 4.05536 16.3675 4.70804L10.791 7.05663C6.78956 8.74121 2.8561 10.4001 2.8561 10.4001L2.90293 10.382C2.90293 10.382 2.63174 10.4711 2.34846 10.6653C2.17345 10.7766 2.02285 10.9223 1.90578 11.0936C1.76678 11.2976 1.65498 11.6095 1.69653 11.9321C1.76452 12.4775 2.11805 12.8046 2.37187 12.9852C2.62872 13.168 2.87347 13.2533 2.87347 13.2533H2.87952L6.56822 14.496C6.73366 15.0271 7.69229 18.1787 7.92269 18.9046C8.05866 19.3382 8.19086 19.6094 8.3563 19.8164C8.43637 19.9222 8.53004 20.0105 8.6426 20.0816C8.70112 20.1156 8.76351 20.1425 8.82843 20.1616L8.79066 20.1526C8.80199 20.1556 8.81106 20.1646 8.81937 20.1677C8.84959 20.176 8.86998 20.179 8.90851 20.185C9.49245 20.3618 9.96156 19.9992 9.96156 19.9992L9.988 19.9781L12.1659 17.9951L15.8161 20.7954L15.8991 20.8309C16.6599 21.1648 17.4304 20.979 17.8376 20.6511C18.2477 20.321 18.4071 19.8987 18.4071 19.8987L18.4336 19.8308L21.2543 5.38036C21.3344 5.0238 21.3548 4.68991 21.2664 4.36583C21.1752 4.03785 20.9648 3.75576 20.6764 3.57491C20.4342 3.42769 20.1534 3.35663 19.8704 3.37095ZM19.7941 4.91955C19.7911 4.96715 19.8001 4.96186 19.779 5.05326V5.06157L16.9847 19.3616C16.9726 19.382 16.9522 19.4266 16.8963 19.4712C16.8374 19.518 16.7905 19.5475 16.545 19.45L12.0805 16.0272L9.38367 18.4854L9.95023 14.8669L17.2445 8.06814C17.5452 7.78863 17.4447 7.72971 17.4447 7.72971C17.4659 7.38675 16.9907 7.62924 16.9907 7.62924L7.79276 13.3274L7.78973 13.3123L3.38111 11.8279V11.8248L3.36978 11.8226C3.37751 11.82 3.38508 11.817 3.39244 11.8135L3.41662 11.8014L3.44004 11.7931C3.44004 11.7931 7.37652 10.1342 11.378 8.44962C13.3813 7.60582 15.3998 6.75598 16.9522 6.10027C17.8729 5.71275 18.7945 5.32748 19.717 4.94448C19.779 4.92031 19.7495 4.91955 19.7941 4.91955Z" fill="#003B8E"/>
</svg>
