<svg width="31" height="31" viewBox="0 0 31 31" fill="none" xmlns="http://www.w3.org/2000/svg">
<path d="M13.9495 0C6.25796 0 0 6.29378 0 14.0293C0 21.7648 6.25796 28.0586 13.9495 28.0586C17.4777 28.0586 20.7061 26.7289 23.1685 24.5467L29.6924 30.9997L31 29.6645L24.4818 23.2166C26.6097 20.7528 27.9046 17.5409 27.9046 14.029C27.8991 6.2935 21.641 0 13.9495 0ZM13.9495 26.1856C7.28737 26.1856 1.86235 20.7314 1.86235 14.0293C1.86235 7.32909 7.28551 1.87301 13.9495 1.87301C20.6115 1.87301 26.0366 7.32722 26.0366 14.0293C26.0366 20.7295 20.6134 26.1856 13.9495 26.1856Z" fill="#003B8E"/>
</svg>
