<svg width="15" height="15" viewBox="0 0 15 15" fill="none" xmlns="http://www.w3.org/2000/svg">
<path d="M6.74974 0.000135697C3.02804 0.000135697 0 3.04551 0 6.78851C0 10.5315 3.02804 13.5769 6.74974 13.5769C8.45696 13.5769 10.0191 12.9335 11.2106 11.8776L14.3673 15L15 14.3539L11.846 11.234C12.8756 10.0418 13.5022 8.48768 13.5022 6.78838C13.4996 3.04538 10.4714 0.000135697 6.74974 0.000135697ZM6.74974 12.6706C3.52615 12.6706 0.901136 10.0315 0.901136 6.78851C0.901136 3.54647 3.52525 0.906431 6.74974 0.906431C9.97333 0.906431 12.5983 3.54556 12.5983 6.78851C12.5983 10.0306 9.97423 12.6706 6.74974 12.6706Z" fill="white"/>
</svg>
